<svg width="42" height="42" viewBox="0 0 42 42" fill="none" xmlns="http://www.w3.org/2000/svg">
<path d="M21 1.75001C15.9486 1.69868 11.0834 3.65507 7.47378 7.18923C3.86415 10.7234 1.80541 15.5461 1.75 20.5975C1.76946 24.5896 3.05365 28.4727 5.41811 31.6893C7.78257 34.9058 11.1056 37.2902 14.91 38.5C15.8725 38.675 16.2225 38.0975 16.2225 37.59C16.2225 37.0825 16.2225 35.9625 16.2225 34.3875C10.8675 35.525 9.73 31.8675 9.73 31.8675C9.37352 30.7193 8.61566 29.7378 7.595 29.1025C5.845 27.9475 7.735 27.965 7.735 27.965C8.33989 28.0459 8.91862 28.2626 9.42779 28.5991C9.93696 28.9355 10.3634 29.3828 10.675 29.9075C11.2181 30.8492 12.1092 31.5401 13.1565 31.8314C14.2039 32.1226 15.3237 31.9911 16.275 31.465C16.3728 30.5067 16.8068 29.6139 17.5 28.945C13.23 28.4725 8.75 26.8625 8.75 19.635C8.71181 17.7497 9.40842 15.9235 10.6925 14.5425C10.1077 12.9239 10.1767 11.1411 10.885 9.57251C10.885 9.57251 12.5125 9.06501 16.135 11.4975C19.2883 10.6572 22.6067 10.6572 25.76 11.4975C29.435 9.06501 31.01 9.57251 31.01 9.57251C31.7182 11.1411 31.7873 12.9239 31.2025 14.5425C32.5164 15.8981 33.2508 17.7121 33.25 19.6C33.25 26.845 28.735 28.4375 24.5 28.91C24.9637 29.3602 25.3219 29.9076 25.5489 30.5128C25.7758 31.1179 25.8658 31.7659 25.8125 32.41V37.5725C25.8125 37.5725 26.1625 38.675 27.125 38.4825C30.9186 37.2652 34.2304 34.8802 36.5876 31.6683C38.9447 28.4563 40.2266 24.5815 40.25 20.5975C40.1946 15.5461 38.1358 10.7234 34.5262 7.18923C30.9166 3.65507 26.0514 1.69868 21 1.75001Z" fill="#1E1E1E"/>
</svg>
