<svg width="49" height="49" viewBox="0 0 49 49" fill="none" xmlns="http://www.w3.org/2000/svg">
<path d="M41.4974 41.5137H34.3979V30.3732C34.3979 27.7167 34.3424 24.3027 30.6854 24.3027C26.9834 24.3027 26.4194 27.1842 26.4194 30.1767V41.5122H19.3109V18.6057H26.1389V21.7302H26.2304C27.1844 19.9257 29.5049 18.0282 32.9669 18.0282C40.1684 18.0282 41.5049 22.7697 41.5049 28.9347V41.5122L41.4974 41.5137ZM11.2799 15.4752C8.98942 15.4752 7.15342 13.6227 7.15342 11.3412C7.15342 9.06718 8.99692 7.21768 11.2799 7.21768C13.5629 7.21768 15.4124 9.06718 15.4124 11.3412C15.4124 13.6227 13.5629 15.4752 11.2799 15.4752ZM14.8409 41.5137H7.71742V18.6072H14.8409V41.5137ZM45.0614 0.607178H4.14742C2.19292 0.607178 0.607422 2.15368 0.607422 4.06768V45.1482C0.607422 47.0622 2.19292 48.6087 4.14742 48.6087H45.0539C47.0054 48.6087 48.6074 47.0622 48.6074 45.1482V4.06768C48.6074 2.15368 47.0054 0.607178 45.0539 0.607178L45.0614 0.607178Z" fill="#1E1E1E"/>
</svg>
