<svg width="96" height="96" viewBox="0 0 96 96" fill="none" xmlns="http://www.w3.org/2000/svg">
<g clip-path="url(#clip0_75_581)">
<path d="M61.888 19.528V53.32C60.864 57.032 58.976 59.88 56.224 61.864C53.472 63.784 50.368 64.744 46.912 64.744C43.392 64.744 40.48 63.656 38.176 61.48C35.872 59.24 34.72 56.008 34.72 51.784V19.528H39.328V51.784C39.328 54.472 40.032 56.552 41.44 58.024C42.848 59.432 44.672 60.136 46.912 60.136C49.344 60.136 51.52 59.496 53.44 58.216C55.36 56.936 56.64 55.112 57.28 52.744V19.528H61.888ZM69.472 19.528H74.08V73H69.472V19.528ZM58.816 68.104C57.472 70.024 55.392 71.528 52.576 72.616C49.824 73.64 46.272 74.152 41.92 74.152C35.968 74.152 31.232 72.36 27.712 68.776C24.192 65.192 22.432 60.488 22.432 54.664V19.528H27.04V54.664C27.04 59.144 28.384 62.76 31.072 65.512C33.76 68.264 37.376 69.64 41.92 69.64C44.352 69.64 46.784 69.416 49.216 68.968C51.648 68.52 54.048 67.496 56.416 65.896C58.784 64.232 61.12 61.672 63.424 58.216V73H58.816V68.104Z" fill="#FFFDD0"/>
</g>
<defs>
<clipPath id="clip0_75_581">
<rect width="96" height="96" fill="white"/>
</clipPath>
</defs>
</svg>
