<svg width="28" height="28" viewBox="0 0 28 28" fill="none" xmlns="http://www.w3.org/2000/svg">
<path d="M13.9998 21.5832C16.0111 21.5832 17.9399 20.7842 19.3621 19.3621C20.7842 17.9399 21.5832 16.0111 21.5832 13.9998C21.5832 11.9886 20.7842 10.0598 19.3621 8.63761C17.9399 7.21546 16.0111 6.4165 13.9998 6.4165C11.9886 6.4165 10.0598 7.21546 8.63761 8.63761C7.21546 10.0598 6.4165 11.9886 6.4165 13.9998C6.4165 16.0111 7.21546 17.9399 8.63761 19.3621C10.0598 20.7842 11.9886 21.5832 13.9998 21.5832V21.5832Z" stroke="#1E1E1E" stroke-width="2" stroke-linecap="round" stroke-linejoin="round"/>
<path d="M22.3302 22.3302L22.1785 22.1785M22.1785 5.82183L22.3302 5.67016L22.1785 5.82183ZM5.67016 22.3302L5.82183 22.1785L5.67016 22.3302ZM14.0002 2.42683V2.3335V2.42683ZM14.0002 25.6668V25.5735V25.6668ZM2.42683 14.0002H2.3335H2.42683ZM25.6668 14.0002H25.5735H25.6668ZM5.82183 5.82183L5.67016 5.67016L5.82183 5.82183Z" stroke="#1E1E1E" stroke-width="2" stroke-linecap="round" stroke-linejoin="round"/>
</svg>
